<svg width="40" height="40" viewBox="0 0 22 40" fill="none" xmlns="http://www.w3.org/2000/svg">
  <path opacity="0.15" fill-rule="evenodd" clip-rule="evenodd" d="M3 1C1.89543 1 1 1.89543 1 3V37C1 38.1046 1.89543 39 3 39H18.9C20.0046 39 20.9 38.1046 20.9 37V3C20.9 1.89543 20.0046 1 18.9 1H15.6631V2H6.23676V1H3Z" fill="url(#paint0_linear)"/>
  <path d="M10 4C7.79086 4 6 5.79086 6 8C6 10.2091 7.79086 12 10 12C12.2091 12 14 10.2091 14 8C14 5.79086 12.2091 4 10 4ZM10 10C8.89543 10 8 9.10457 8 8C8 6.89543 8.89543 6 10 6C11.1046 6 12 6.89543 12 8C12 9.10457 11.1046 10 10 10Z" fill="#000"/>
  <path d="M14.933 14.1213C14.2426 13.4308 13.0158 13.4308 12.3253 14.1213L9.5 16.9466L6.67468 14.1213C5.98423 13.4308 4.75736 13.4308 4.06691 14.1213C3.37646 14.8118 3.37646 16.0387 4.06691 16.7292L8.56691 21.2292C8.93585 21.5981 9.45012 21.7873 9.96439 21.7873C10.4787 21.7873 10.993 21.5981 11.3619 21.2292L15.8619 16.7292C16.5524 16.0387 16.5524 14.8118 15.8619 14.1213H14.933Z" fill="#000"/>
  <defs>
    <linearGradient id="paint0_linear" x1="2.12767" y1="1" x2="30.7018" y2="17.5237" gradientUnits="userSpaceOnUse">
      <stop offset="0.259336" stop-color="#FFDB6E"/>
      <stop offset="1" stop-color="#FFBC5E"/>
    </linearGradient>
  </defs>
</svg>
