<svg width="40" height="40" viewBox="0 0 22 40" fill="none" xmlns="http://www.w3.org/2000/svg">
  <path opacity="0.15" fill-rule="evenodd" clip-rule="evenodd" d="M3 1C1.89543 1 1 1.89543 1 3V37C1 38.1046 1.89543 39 3 39H18.9C20.0046 39 20.9 38.1046 20.9 37V3C20.9 1.89543 20.0046 1 18.9 1H15.6631V2H6.23676V1H3Z" fill="url(#paint0_linear)"/>
  <path d="M7 7C5.34315 7 4 8.34315 4 10C4 11.6569 5.34315 13 7 13C8.65685 13 10 11.6569 10 10C10 8.34315 8.65685 7 7 7ZM7 11C6.44772 11 6 10.5523 6 10C6 9.44772 6.44772 9 7 9C7.55228 9 8 9.44772 8 10C8 10.5523 7.55228 11 7 11Z" fill="#000"/>
  <path d="M15 7C13.3431 7 12 8.34315 12 10C12 11.6569 13.3431 13 15 13C16.6569 13 18 11.6569 18 10C18 8.34315 16.6569 7 15 7ZM15 11C14.4477 11 14 10.5523 14 10C14 9.44772 14.4477 9 15 9C15.5523 9 16 9.44772 16 10C16 10.5523 15.5523 11 15 11Z" fill="#000"/>
  <path d="M4.5 18C3.11929 18 2 19.1193 2 20.5C2 21.8807 3.11929 23 4.5 23H17.5C18.8807 23 20 21.8807 20 20.5C20 19.1193 18.8807 18 17.5 18H4.5ZM4.5 21H17.5C18.0523 21 18.5 20.5523 18.5 20.5C18.5 20.4477 18.0523 20 17.5 20H4.5C3.94772 20 3.5 20.4477 3.5 20.5C3.5 20.5523 3.94772 21 4.5 21Z" fill="#000"/>
  <defs>
    <linearGradient id="paint0_linear" x1="2.12767" y1="1" x2="30.7018" y2="17.5237" gradientUnits="userSpaceOnUse">
      <stop offset="0.259336" stop-color="#FFDB6E"/>
      <stop offset="1" stop-color="#FFBC5E"/>
    </linearGradient>
    <linearGradient id="paint1_linear" x1="2.12767" y1="1" x2="30.7018" y2="17.5237" gradientUnits="userSpaceOnUse">
      <stop offset="0.259336" stop-color="#FFDB6E"/>
      <stop offset="1" stop-color="#FFBC5E"/>
    </linearGradient>
  </defs>
</svg>
